<svg version="1.0" xmlns="http://www.w3.org/2000/svg" width="448.000000pt" height="246.000000pt"
    viewBox="0 0 448.000000 246.000000" preserveAspectRatio="xMidYMid meet">
    <g transform="translate(0.000000,246.000000) scale(0.050000,-0.050000)" fill="#1453d2"
        stroke="none">
        <path
            d="M300 2990 l0 -1570 2080 0 c1373 0 2080 7 2080 20 0 13 -700 20 -2060 20 l-2060 0 0 1519 0 1519 85 12 c47 6 1831 9 3965 6 l3880 -6 5 -1525 5 -1525 -160 0 c-93 0 -160 -8 -160 -20 0 -12 73 -20 180 -20 l180 0 0 1570 0 1570 -4010 0 -4010 0 0 -1570z" />
        <path
            d="M740 4049 l0 -331 173 6 174 6 -5 155 -5 155 362 0 361 0 0 -750 0 -750 -360 0 -360 0 0 160 0 159 60 -12 c84 -17 79 -9 -85 138 l-145 130 -150 -140 c-142 -132 -146 -139 -85 -128 l65 12 0 -337 0 -337 566 6 c889 11 833 -63 834 1093 0 860 -2 883 -96 983 -106 112 -115 113 -733 113 l-571 0 0 -331z m244 120 c7 -6 2 -41 -9 -78 -17 -57 -14 -78 22 -136 59 -95 59 -95 -87 -95 -71 0 -130 5 -130 12 0 17 127 197 145 205 8 3 15 28 15 55 0 45 20 62 44 37z" />
        <path
            d="M2357 3367 c-21 -26 -28 -147 -33 -540 l-6 -507 50 -50 c49 -49 57 -50 342 -50 371 0 390 12 390 249 l0 151 -130 0 -130 0 0 -100 0 -100 -130 0 -130 0 0 170 0 170 227 0 c298 0 293 -5 293 312 0 344 18 328 -389 328 -279 0 -330 -5 -354 -33z m483 -297 l0 -150 -130 0 -130 0 0 150 0 150 130 0 130 0 0 -150z" />
        <path
            d="M3825 3271 c-46 -15 -115 -45 -153 -67 l-68 -40 -56 58 c-46 48 -72 58 -152 58 l-96 0 0 -520 0 -520 210 0 209 0 6 355 5 355 95 6 95 6 0 -361 0 -361 209 0 210 0 -5 447 c-6 499 -14 530 -145 585 -83 35 -251 34 -364 -1z" />
        <path
            d="M4830 3283 c-471 -125 -471 -939 0 -1045 532 -119 867 236 714 756 -69 234 -405 370 -714 289z m310 -499 c0 -247 -9 -264 -134 -264 l-86 0 0 216 c0 247 9 264 134 264 l86 0 0 -216z" />
        <path
            d="M7060 3262 c-373 -132 -407 -802 -50 -988 201 -104 586 -60 715 83 165 182 176 600 21 784 -124 147 -451 205 -686 121z m360 -478 c0 -247 -9 -264 -134 -264 l-86 0 0 216 c0 247 9 264 134 264 l86 0 0 -216z" />
        <path
            d="M5640 3265 c0 -8 57 -240 127 -515 l126 -500 277 0 277 0 126 500 c70 275 127 507 127 516 0 8 -92 13 -204 10 l-204 -6 -52 -330 c-29 -181 -60 -330 -70 -330 -9 0 -38 140 -64 310 -26 171 -51 321 -56 335 -10 28 -410 37 -410 10z" />
        <path
            d="M4790 1906 c-186 -46 -212 -238 -56 -412 117 -131 132 -254 35 -298 -75 -34 -143 -5 -172 74 -28 79 -47 87 -76 31 -74 -138 130 -237 281 -135 155 104 148 247 -20 442 -96 110 -105 176 -31 224 62 41 142 14 152 -52 10 -61 43 -58 65 5 31 86 -64 150 -178 121z" />
        <path d="M6901 1841 c-31 -57 -26 -121 9 -121 30 0 70 75 70 131 0 42 -55 35 -79 -10z" />
        <path
            d="M7201 1776 c-23 -24 -41 -64 -41 -88 0 -34 -13 -47 -53 -52 -73 -8 -87 -56 -17 -56 54 0 54 0 37 -105 -30 -194 -22 -343 20 -351 43 -9 133 69 132 114 0 28 -4 27 -27 -3 -71 -93 -87 -24 -49 206 18 107 31 139 56 139 35 0 81 37 81 64 0 9 -24 11 -53 4 -55 -14 -61 35 -18 137 21 49 -19 44 -68 -9z" />
        <path
            d="M5140 1584 c-169 -168 -181 -464 -20 -464 63 0 200 117 200 171 0 41 -9 37 -77 -31 -68 -68 -88 -73 -132 -29 -43 44 -39 84 10 99 123 39 253 235 198 301 -40 48 -100 33 -179 -47z m112 -32 c14 -37 -41 -144 -83 -160 -60 -23 -74 -13 -60 40 29 117 116 190 143 120z" />
        <path
            d="M5519 1581 c-160 -168 -178 -461 -28 -461 54 0 189 120 189 167 0 45 -8 42 -79 -29 -80 -80 -121 -54 -121 76 0 168 112 311 191 245 27 -22 35 -22 50 2 67 106 -101 106 -202 0z" />
        <path
            d="M5832 1598 c-29 -33 -52 -76 -52 -95 0 -24 14 -17 52 27 l51 60 -12 -70 c-64 -372 -63 -400 6 -400 21 0 75 40 121 90 l83 90 -6 -84 c-4 -67 2 -86 30 -92 42 -8 135 88 135 140 0 33 -7 30 -49 -18 -61 -68 -61 -67 -4 199 59 275 -7 316 -77 48 -34 -130 -104 -247 -157 -265 -53 -17 -53 -14 -20 187 43 253 9 315 -101 183z" />
        <path
            d="M6373 1599 c-29 -34 -53 -77 -53 -96 0 -24 14 -16 49 27 46 55 50 57 50 17 1 -45 -49 -326 -70 -390 -6 -20 -2 -37 10 -37 42 0 101 81 101 141 0 115 106 299 173 299 15 0 27 -15 27 -32 0 -27 5 -28 30 -8 34 28 40 111 10 130 -38 23 -102 -13 -158 -90 l-55 -77 1 83 c2 106 -43 120 -115 33z" />
        <path
            d="M6826 1615 c-55 -60 -93 -135 -68 -135 11 0 25 18 32 40 7 22 24 40 38 40 20 0 18 -42 -11 -195 -39 -204 -37 -245 10 -245 31 0 153 129 153 161 0 35 -37 20 -50 -21 -14 -46 -50 -54 -50 -12 0 15 14 102 31 192 42 220 12 281 -85 175z" />
        <path
            d="M7430 1608 c-50 -54 -66 -108 -31 -108 10 0 24 18 31 40 30 96 50 25 50 -181 0 -271 23 -296 145 -158 l79 88 -15 -79 c-63 -344 -153 -491 -258 -423 -35 23 -51 52 -51 90 0 69 -18 90 -53 60 -63 -52 -9 -229 73 -238 189 -22 297 144 380 587 31 167 63 320 70 339 10 24 5 35 -15 35 -43 0 -66 -36 -102 -160 -37 -124 -111 -263 -147 -275 -18 -6 -26 50 -30 208 -7 244 -31 278 -126 175z" />
    </g>
</svg> 