<svg version="1.0" xmlns="http://www.w3.org/2000/svg" width="300.000000pt" height="204.000000pt"
    viewBox="0 0 300.000000 204.000000" preserveAspectRatio="xMidYMid meet">
    <g transform="translate(0.000000,204.000000) scale(0.100000,-0.100000)" fill="#009de0"
        stroke="none">
        <path
            d="M1410 1904 c-25 -8 -53 -12 -62 -10 -10 2 -20 0 -23 -4 -6 -10 -64 -40 -77 -40 -11 0 -81 -51 -86 -62 -2 -5 -7 -8 -12 -8 -23 0 -130 -135 -130 -164 0 -7 -9 -25 -20 -39 -11 -14 -20 -35 -20 -47 0 -11 -4 -18 -10 -15 -5 3 -10 2 -10 -3 0 -4 -53 -9 -117 -10 -122 -1 -167 -8 -157 -23 3 -5 1 -9 -5 -9 -14 0 -4 -60 14 -80 14 -16 37 -18 182 -18 166 -1 197 3 187 19 -3 5 -1 9 5 9 5 0 12 14 16 30 4 17 10 30 14 30 5 0 11 16 14 36 3 20 17 51 31 69 14 18 23 34 21 36 -2 2 21 28 51 56 30 29 54 49 54 45 0 -4 5 1 11 11 5 9 17 17 24 17 8 0 15 5 15 11 0 6 6 9 14 6 8 -3 16 -1 18 4 5 15 67 26 161 28 96 2 194 -24 235 -62 13 -12 25 -21 28 -20 9 5 34 -10 29 -17 -3 -4 3 -14 12 -21 14 -12 16 -12 8 1 -5 9 0 8 13 -4 12 -11 22 -27 22 -38 0 -10 7 -18 14 -18 14 0 68 -93 63 -108 -1 -4 6 -28 16 -53 15 -40 23 -48 52 -53 40 -8 76 10 67 32 -4 11 -1 13 8 7 10 -6 12 -2 7 16 -4 13 -7 34 -7 47 0 14 -4 21 -11 17 -6 -4 -9 -1 -8 6 5 23 -10 68 -36 109 -13 21 -21 41 -18 44 4 3 1 6 -6 6 -7 0 -9 5 -6 10 3 6 1 10 -5 10 -17 0 -37 23 -32 38 2 6 -1 12 -8 12 -6 0 -8 5 -4 12 4 6 3 8 -4 4 -6 -3 -28 10 -49 29 -21 19 -45 35 -53 35 -13 0 -13 1 0 11 12 8 10 9 -7 4 -14 -4 -23 -2 -23 4 0 6 -7 11 -15 11 -8 0 -15 5 -15 11 0 5 -4 7 -10 4 -5 -3 -24 1 -41 10 -87 45 -228 58 -319 29z m243 -29 c93 -22 207 -90 270 -160 58 -65 137 -226 137 -279 0 -18 -36 -40 -55 -32 -7 2 -21 31 -30 63 -36 123 -91 199 -193 266 -75 50 -114 65 -204 77 -221 32 -450 -122 -508 -340 -7 -25 -17 -51 -22 -57 -8 -10 -55 -13 -174 -13 -153 0 -164 1 -174 20 -8 14 -8 26 0 41 11 19 19 20 153 18 l141 -2 13 39 c59 175 211 317 385 360 71 17 190 17 261 -1z" />
        <path
            d="M1408 1648 c-18 -10 -38 -18 -45 -18 -6 0 -24 -15 -38 -32 -15 -18 -24 -26 -20 -18 3 8 -1 6 -9 -5 -9 -11 -22 -27 -29 -35 -7 -8 -14 -18 -15 -22 -2 -4 -10 -25 -19 -45 -46 -110 -8 -284 74 -336 7 -4 9 -15 6 -24 -4 -11 -3 -14 5 -9 7 4 22 -3 34 -14 13 -12 35 -24 51 -27 15 -3 30 -10 33 -14 7 -11 157 -12 169 -1 6 5 30 15 55 23 46 14 130 89 130 116 0 7 4 13 9 13 19 0 34 66 34 149 -1 98 -5 131 -14 131 -7 0 -33 52 -31 62 1 5 -1 7 -6 5 -4 -1 -7 0 -8 3 -1 9 -66 70 -86 81 -11 6 -22 8 -25 5 -4 -3 -21 4 -39 15 -28 17 -47 20 -109 17 -46 -2 -87 -10 -107 -20z m255 -43 c57 -32 122 -110 137 -163 30 -109 -1 -225 -80 -295 -62 -57 -112 -77 -196 -77 -303 -1 -393 410 -119 542 54 26 68 29 135 25 58 -3 86 -10 123 -32z" />
        <path
            d="M2030 1343 c-22 -8 -70 -64 -70 -81 0 -8 -11 -36 -24 -62 -13 -27 -22 -51 -19 -54 4 -3 1 -6 -5 -6 -7 0 -12 -6 -12 -13 0 -8 -20 -33 -44 -57 -25 -24 -42 -48 -40 -52 3 -5 2 -8 -3 -7 -20 3 -34 -2 -28 -11 3 -5 0 -10 -8 -10 -8 0 -26 -9 -40 -21 -16 -11 -46 -22 -73 -24 -25 -2 -51 -9 -58 -14 -24 -20 -129 -14 -206 11 -62 20 -131 59 -124 70 4 6 1 9 -7 6 -20 -7 -102 79 -95 99 4 11 2 13 -9 9 -8 -3 -14 -2 -13 2 1 4 -6 21 -15 39 -9 18 -17 38 -17 45 0 7 -12 36 -26 64 -27 54 -66 76 -91 51 -32 -32 -41 -67 -28 -111 24 -81 106 -235 132 -249 9 -6 28 -21 41 -34 12 -13 27 -23 32 -23 6 0 10 -7 10 -16 0 -8 4 -13 9 -9 6 3 14 -2 19 -11 5 -9 12 -15 16 -14 14 4 66 -23 60 -31 -3 -5 5 -9 18 -8 13 0 55 -9 95 -19 75 -21 214 -22 238 -2 7 5 15 7 18 4 3 -3 12 -2 19 2 7 5 20 9 28 11 19 3 61 24 82 41 9 8 21 11 26 8 5 -3 24 8 43 25 19 17 53 45 76 62 23 18 43 37 43 44 0 6 8 19 17 29 10 9 18 23 19 31 2 8 10 20 20 27 9 7 14 18 10 24 -4 7 -2 12 3 12 6 0 11 9 11 21 0 11 5 29 10 39 9 18 22 19 125 18 63 -1 118 2 122 5 3 4 14 7 24 7 22 0 44 37 40 65 -6 41 -25 48 -165 56 -74 4 -143 10 -153 12 -10 3 -25 3 -33 0z m-981 -43 c11 -5 22 -26 26 -47 12 -65 64 -161 118 -217 171 -175 436 -193 628 -42 85 66 140 160 175 294 4 16 349 18 359 1 4 -5 4 -21 1 -35 l-6 -24 -149 0 -149 0 -5 -27 c-17 -83 -90 -194 -172 -262 -152 -127 -377 -159 -559 -81 -150 64 -264 195 -310 356 -13 46 -13 55 0 73 17 24 19 24 43 11z" />
        <path
            d="M1655 612 c-2 -2 -20 -5 -40 -8 -20 -2 -50 -11 -65 -19 -16 -8 -36 -15 -46 -15 -10 0 -14 -5 -11 -14 4 -10 1 -13 -9 -9 -7 3 -14 0 -14 -7 0 -6 -6 -18 -14 -26 -13 -12 -16 -9 -26 21 -14 42 -31 52 -90 55 -67 4 -94 -7 -115 -46 l-18 -34 -18 29 c-24 40 -51 53 -112 52 -29 0 -142 -1 -252 0 l-200 0 -28 -30 c-15 -16 -23 -31 -18 -33 4 -1 5 -11 2 -21 -6 -17 -9 -16 -36 9 -16 15 -53 38 -82 50 -46 21 -70 24 -167 24 -167 0 -160 13 -157 -271 3 -281 -6 -266 158 -271 64 -2 109 1 106 6 -4 5 6 6 21 2 14 -3 26 -2 26 3 0 5 13 14 29 21 16 6 38 21 48 32 10 11 26 24 36 30 16 8 18 7 12 -12 -5 -15 -4 -20 4 -16 6 4 11 0 11 -8 0 -9 9 -25 20 -36 19 -19 33 -21 182 -21 141 0 162 3 175 18 8 10 12 12 8 6 -4 -8 0 -13 9 -13 9 0 16 -3 16 -8 0 -4 30 -5 68 -2 68 5 114 30 104 58 -2 7 1 12 7 12 6 0 8 8 5 17 -5 14 -4 15 4 4 6 -8 8 -21 4 -29 -4 -11 -1 -14 11 -9 11 4 14 2 11 -8 -3 -8 3 -16 15 -20 12 -3 19 -11 15 -16 -3 -6 26 -9 78 -7 l83 3 18 36 c14 29 22 36 38 32 11 -3 16 -9 11 -12 -5 -3 0 -15 10 -26 19 -20 19 -20 12 0 -7 18 -6 19 12 5 10 -8 25 -21 32 -28 14 -13 26 -15 56 -12 10 1 15 -3 12 -8 -9 -15 125 -20 149 -6 11 6 32 14 48 18 15 4 27 11 27 16 0 6 7 10 16 10 18 0 64 39 64 54 0 6 8 19 19 30 10 12 23 35 28 51 10 29 10 28 18 -24 4 -31 10 -48 15 -41 5 7 10 -2 14 -25 4 -21 18 -48 31 -61 22 -22 32 -24 118 -24 91 0 94 1 120 30 15 16 27 37 27 45 0 19 33 95 41 95 3 0 14 -18 25 -39 12 -25 22 -35 26 -28 5 8 8 5 8 -8 2 -45 124 -105 214 -105 61 0 148 24 171 46 8 8 15 13 15 10 0 -6 52 48 68 70 22 34 35 74 33 102 -1 12 2 22 7 22 12 0 8 86 -6 121 -6 15 -9 29 -7 31 9 9 -73 114 -100 128 -16 8 -32 18 -35 21 -3 3 -26 11 -52 18 -60 17 -181 6 -226 -20 -33 -19 -34 -19 -62 1 -23 16 -44 20 -113 20 -82 0 -86 -1 -110 -30 -14 -16 -28 -43 -32 -60 -4 -16 -11 -30 -17 -30 -6 0 -8 9 -5 20 3 12 1 18 -5 14 -7 -5 -9 3 -4 22 5 21 4 25 -4 14 -8 -12 -10 -11 -10 7 0 13 -8 24 -20 28 -11 3 -20 10 -20 14 0 5 -87 6 -171 1 -3 0 -15 -9 -27 -20 -20 -19 -24 -20 -52 -5 -16 9 -30 21 -30 27 0 9 -3 9 -11 1 -12 -12 -42 -6 -35 6 4 7 -92 9 -99 3z m100 -43 c58 -16 113 -56 142 -107 35 -59 44 -180 19 -246 -19 -51 -73 -107 -125 -132 -51 -25 -173 -24 -224 0 -91 44 -129 109 -135 226 -4 78 -2 89 25 139 56 106 173 154 298 120z m991 -17 c86 -44 128 -120 128 -232 0 -154 -93 -251 -242 -254 -88 -1 -149 23 -200 78 -45 49 -62 96 -62 172 0 120 63 218 159 249 62 20 164 14 217 -13z m-659 6 c10 -13 53 -186 53 -213 0 -8 4 -15 8 -15 5 0 19 46 32 103 34 146 25 137 131 137 63 0 91 -4 94 -12 2 -7 -33 -119 -78 -248 l-82 -235 -94 0 -95 0 -82 240 c-45 132 -80 243 -78 247 9 14 181 9 191 -4z m-1629 -27 c53 -27 100 -77 112 -121 16 -57 12 -151 -9 -195 -45 -97 -109 -128 -269 -129 l-113 -1 1 228 c0 125 0 232 0 238 0 9 33 10 118 6 93 -4 128 -9 160 -26z m492 -36 l0 -65 -95 0 c-95 0 -95 0 -95 -25 0 -25 1 -25 80 -25 l79 0 -6 -52 c-3 -29 -7 -55 -9 -57 -2 -2 -35 -3 -74 -2 l-70 2 0 -30 0 -31 100 0 100 0 0 -65 0 -65 -170 0 -170 0 0 240 0 240 165 0 165 0 0 -65z m247 -55 l63 -115 0 118 0 117 70 0 70 0 0 -240 0 -241 -72 3 -72 3 -56 107 c-31 59 -58 110 -61 112 -3 3 -3 -46 -1 -110 l5 -115 -74 3 -73 3 -2 230 c-1 127 1 234 3 238 3 4 35 7 71 5 l67 -3 62 -115z" />
        <path
            d="M1605 543 c-11 -3 -40 -19 -64 -35 -58 -40 -85 -101 -84 -188 0 -74 18 -123 59 -163 49 -49 82 -62 164 -62 64 0 82 4 122 27 109 65 140 224 65 335 -44 65 -83 86 -171 89 -39 2 -80 0 -91 -3z m149 -43 c6 -6 18 -10 27 -10 43 0 113 -156 90 -199 -6 -11 -11 -31 -11 -44 0 -26 -30 -67 -49 -67 -6 0 -11 -4 -11 -10 0 -19 -74 -46 -123 -44 -52 2 -130 31 -121 45 3 5 -2 9 -10 9 -30 0 -50 60 -50 146 1 69 5 86 25 113 13 17 29 29 36 27 7 -3 12 -1 10 5 -1 6 14 20 33 31 28 15 46 18 90 13 30 -3 59 -10 64 -15z" />
        <path
            d="M1634 465 c-12 -8 -23 -12 -26 -10 -3 3 -18 -10 -34 -27 -26 -30 -28 -39 -28 -106 0 -59 3 -77 17 -87 9 -7 17 -17 17 -23 0 -15 46 -38 92 -46 40 -7 73 5 96 37 7 9 18 15 23 11 6 -3 9 0 8 7 -2 8 2 23 8 34 15 28 24 95 12 95 -5 0 -9 12 -9 26 0 16 -4 23 -11 18 -7 -4 -10 1 -7 12 4 22 -23 46 -71 62 -45 16 -62 15 -87 -3z m109 -46 c37 -29 54 -88 38 -138 -32 -109 -172 -109 -201 0 -14 51 2 111 37 138 34 27 92 27 126 0z" />
        <path
            d="M1650 407 c-35 -17 -52 -55 -46 -102 13 -105 141 -100 153 6 4 38 1 50 -18 71 -30 33 -57 41 -89 25z m52 -44 c21 -19 23 -41 5 -76 -12 -23 -16 -24 -38 -14 -30 15 -38 67 -14 91 20 20 24 20 47 -1z" />
        <path
            d="M2522 530 c-85 -38 -125 -109 -123 -217 1 -140 108 -234 249 -220 125 13 197 99 197 232 -1 80 -24 136 -75 178 -58 50 -171 62 -248 27z m195 -40 c14 -11 32 -20 39 -20 8 0 14 -10 15 -22 0 -16 2 -18 7 -8 9 24 34 -79 32 -133 0 -27 -5 -58 -10 -70 -14 -37 -53 -75 -93 -92 -38 -16 -137 -27 -137 -15 0 3 -9 6 -19 7 -11 1 -27 9 -38 17 -10 9 -26 21 -35 28 -9 7 -18 22 -20 33 -2 11 -7 23 -13 27 -13 10 -11 139 3 173 15 35 74 80 122 93 52 13 117 6 147 -18z" />
        <path
            d="M2597 470 c-33 -4 -52 -13 -62 -27 -9 -12 -23 -29 -32 -38 -10 -11 -18 -39 -21 -79 -4 -63 -4 -63 40 -109 35 -38 51 -47 87 -51 34 -3 51 0 71 14 15 11 30 17 34 13 3 -3 6 1 6 11 0 10 5 14 11 10 8 -4 9 1 4 16 -4 13 -3 20 2 17 5 -3 15 3 22 15 7 11 8 17 2 14 -7 -5 -9 3 -5 23 10 46 -3 94 -34 129 -35 39 -65 50 -125 42z m95 -59 c31 -27 33 -34 33 -91 -1 -57 -3 -65 -33 -91 -54 -48 -129 -35 -161 28 -6 12 -11 45 -11 73 0 44 5 56 29 81 41 41 98 41 143 0z" />
        <path
            d="M2594 409 c-42 -15 -61 -71 -44 -125 31 -92 150 -63 150 36 0 64 -53 109 -106 89z m54 -41 c21 -21 15 -81 -10 -97 -19 -12 -23 -11 -39 10 -23 30 -24 53 -2 79 20 23 34 25 51 8z" />
        <path
            d="M1944 483 c13 -32 47 -131 77 -220 l54 -162 75 -1 75 0 64 188 c35 103 70 199 78 214 7 15 13 29 13 33 0 3 -33 5 -73 5 l-72 0 -34 -137 c-35 -141 -46 -168 -59 -146 -4 7 -22 73 -41 147 l-33 136 -73 0 -74 0 23 -57z m376 2 c0 -12 -4 -25 -9 -30 -5 -6 -18 -41 -28 -80 -10 -38 -21 -72 -25 -75 -4 -3 -9 -15 -11 -25 -2 -11 -9 -31 -14 -45 -6 -14 -9 -28 -7 -31 2 -4 -3 -12 -11 -19 -8 -7 -15 -18 -15 -25 0 -16 -42 -27 -67 -18 -26 9 -53 34 -48 43 3 5 0 21 -6 37 -6 15 -9 28 -8 28 1 0 -4 11 -11 25 -8 14 -15 27 -15 30 -9 38 -19 60 -27 60 -5 0 -6 5 -3 10 4 6 3 16 -2 23 -9 11 -33 86 -33 101 0 3 11 6 25 6 17 0 28 -9 39 -32 18 -38 51 -177 47 -197 -1 -7 1 -11 6 -8 4 3 14 -1 21 -9 7 -8 9 -14 5 -15 -4 0 1 -4 12 -8 21 -8 57 7 49 21 -3 4 -1 8 4 8 13 0 31 47 37 99 3 24 9 49 12 54 4 6 8 24 10 41 4 39 18 54 48 52 18 -1 25 -7 25 -21z" />
        <path
            d="M318 320 l-3 -110 32 0 c19 0 43 10 60 24 25 22 28 31 28 84 0 74 -28 112 -81 112 l-33 0 -3 -110z m78 -2 c-1 -28 -5 -42 -13 -41 -8 2 -10 -4 -6 -15 5 -14 3 -15 -8 -4 -12 11 -14 95 -2 115 11 19 30 -16 29 -55z" />
    </g>
</svg> 